<svg xmlns="http://www.w3.org/2000/svg" width="256" height="256"><path fill="#1976D2" fill-opacity=".016" fill-rule="evenodd" d="M0 128.004v128.004l128.25-.254 128.25-.254.254-127.75L257.008 0H0zm.485.496c0 70.4.119 99.053.265 63.672s.146-92.98 0-128S.485 58.1.485 128.5"/><path fill="#1976D2" fill-opacity=".103" fill-rule="evenodd" d="M140.5 1.147C137.385 2.838 58.048 82.163 56.435 85.2c-2.003 3.769-1.788 9.492.493 13.184 1.061 1.716 8.796 9.644 17.19 17.618L89.379 130.5l-6.312.906c-5.594.804-6.427.703-7.316-.887-2.538-4.535-8.533-9.778-14.587-12.759-6.091-2.999-7.382-3.257-16.142-3.228-7.563.025-10.72.508-15.346 2.349-12.784 5.088-23.474 16.242-27.765 28.969-2.869 8.509-2.395 22.284 1.01 29.366 12.083 25.133 46.264 27.928 66.834 5.465 2.34-2.555 5.217-6.629 6.394-9.052 2.092-4.305 2.269-4.416 7.746-4.892 3.083-.267 5.695-.415 5.805-.328s-.057 2.647-.371 5.69c-.552 5.351-.72 5.612-5.12 7.946-8.258 4.381-14.826 11.377-19.461 20.731-4.151 8.375-4.248 8.803-4.248 18.665 0 9.39.229 10.56 3.287 16.774 3.636 7.389 9.463 13.197 16.997 16.939 4.123 2.049 6.164 2.343 16.237 2.345 11.05.001 11.8-.136 18.328-3.35 22.303-10.98 32.688-37.413 22.683-57.735-2.791-5.67-8.104-11.676-12.51-14.142-1.489-.833-1.652-1.866-1.088-6.876l.664-5.896 16.786 16.75c16.047 16.012 16.959 16.749 20.701 16.718 6.032-.049 9.4-3.675 9.43-10.152.024-5.024 1.111-5.967 7.163-6.207 9.883-.392 15.822-6.56 15.822-16.429 0-4.895 1.414-6.18 6.799-6.18 9.405 0 15.201-5.647 15.201-14.811 0-6.165 2.188-8.189 8.854-8.189 8.462 0 14.146-6.108 14.146-15.201 0-5.273 1.291-6.799 5.75-6.799 3.957 0 8.754-2.264 9.629-4.545.341-.89.621-3.271.621-5.29 0-3.516-2.159-5.826-50.75-54.314-27.913-27.854-51.733-51.139-52.934-51.747-2.768-1.399-9.204-1.376-11.816.043M96.079 90.583c.048 1.165.285 1.402.604.605.289-.722.253-1.585-.079-1.917s-.568.258-.525 1.312m81.734 15.1c.721.289 1.584.253 1.916-.079s-.258-.568-1.312-.525c-1.165.048-1.402.285-.604.604M39.625 141.469c-15.559 5.546-18.215 27.864-3.316 27.864 8.075 0 17.332-7.867 19.185-16.306.972-4.427-1.802-9.84-5.926-11.563-4.223-1.765-4.979-1.764-9.943.005M98.5 202.367c-5.98 2.785-12.5 11.942-12.5 17.554 0 7.677 8.318 12.172 16.685 9.018 3.416-1.288 8.969-6.454 10.9-10.139 2.238-4.272 1.817-11.221-.868-14.343-2.776-3.227-9.618-4.233-14.217-2.09"/><path fill="#1976D2" fill-opacity=".622" fill-rule="evenodd" d="M141.866.767c-.898.403-20.551 19.408-43.672 42.233-36.913 36.44-42.122 41.956-42.726 45.243-.379 2.059-.379 4.984-.002 6.5.425 1.705 6.986 9.1 17.187 19.371C90.417 132.001 90.417 132 81.033 132c-3.877 0-5.088-.434-6.28-2.25-7.2-10.97-22.776-17.326-36.321-14.822-17.456 3.227-32.429 16.8-36.948 33.493-9.128 33.721 24.411 58.827 55.858 41.813 6.778-3.667 14.841-11.689 17.984-17.89 2.252-4.446 3.031-5.142 6.37-5.693 7.289-1.205 8.304-.933 8.304 2.224 0 7.1-1.025 8.948-6.76 12.185-11.388 6.427-19.858 18.63-22.349 32.2-3.015 16.43 4.859 32.053 19.871 39.423C85.948 255.229 87.51 255.5 97 255.5c9.749 0 10.986-.23 17.288-3.215 18.364-8.699 29.979-29.271 26.708-47.307-1.591-8.772-4.898-14.774-11.433-20.746-5.17-4.726-5.563-5.402-5.563-9.577 0-9.047.055-9.02 18.451 9.268C157.344 198.728 160.046 201 162.759 201c4.934 0 8.336-3.616 8.97-9.533.293-2.732.979-5.529 1.524-6.217.562-.708 3.217-1.252 6.119-1.254 9.012-.006 14.628-5.386 14.628-14.012 0-6.473 1.284-7.984 6.785-7.986 9.719-.003 16.215-6.191 16.215-15.446 0-2.834.54-5.692 1.2-6.352s3.472-1.202 6.25-1.204c5.533-.004 10.422-2.345 12.946-6.198.828-1.264 1.694-4.961 1.925-8.216.488-6.888 2.051-8.582 7.916-8.582 5.231 0 8.763-3.494 8.763-8.668 0-3.596-1.355-5.118-31.25-35.118-17.187-17.248-40.59-40.383-52.006-51.41-19.581-18.917-20.995-20.071-25-20.41-2.334-.198-4.979-.03-5.878.373M104.109 49.39C68.84 84.668 63.805 90.08 64.331 92.14c.332 1.298 7.105 8.841 15.052 16.763l14.449 14.403.621-4.903c1.76-13.879 1.82-12.958-.918-14.205-3.434-1.565-3.261-4.854.458-8.691 2.481-2.56 3.102-4.195 3.622-9.548l.628-6.459-6.897 6.75c-6.925 6.778-8.923 7.773-11.146 5.55-2.501-2.501-.92-5.366 8.55-15.49 5.362-5.733 10.879-12.667 12.259-15.409 3.288-6.532 8.416-11.723 13.991-14.165 2.851-1.249 8.567-5.96 15.596-12.854C136.699 27.897 142.367 23 143.191 23c1.827 0 4.809 3.136 4.809 5.057 0 .769-3.46 4.879-7.689 9.133-7.534 7.579-7.653 7.775-5.875 9.739 1.066 1.178 1.595 2.844 1.283 4.038-.293 1.118-.226 2.033.147 2.033s4.483-3.825 9.134-8.5c8.824-8.87 11.954-10.323 14-6.5 1.521 2.842.727 3.916-12.864 17.415L134.14 67.329l-.694 7.399c-.577 6.163-.387 7.966 1.139 10.799 1.821 3.382 1.818 3.415-.564 5.951-1.859 1.978-2.489 3.946-2.812 8.786l-.417 6.236 5.386-5.25c5.35-5.216 8.323-6.349 10.622-4.05 2.321 2.321 1.115 4.35-8.19 13.782l-9.389 9.518-.667 6.5-.667 6.5 12.82-12.75c7.052-7.012 13.57-12.75 14.485-12.75 2.112 0 4.808 2.655 4.808 4.735 0 1.854-24.535 26.983-27.157 27.815-.972.308-2.628.1-3.679-.462-1.787-.957-1.958-.49-2.625 7.162l-.714 8.185 17.837 17.736c9.811 9.754 18.08 17.756 18.375 17.782s.645-1.366.777-3.094c.547-7.18 7.526-12.859 15.802-12.859 5.105 0 6.384-1.365 6.384-6.814 0-5.302 3.048-11.192 6.999-13.526 1.545-.913 4.778-1.66 7.183-1.66 6.618 0 8.493-1.828 8.995-8.766.678-9.377 5.831-14.234 15.102-14.234 5.514 0 6.736-1.34 7.226-7.926.208-2.786 1.181-6.428 2.164-8.091 1.51-2.556 6.438-5.751 10.997-7.13 1.86-.563-94.804-97.95-97.171-97.897-1.275.028-16.704 14.747-42.386 40.434m48.127 11.873C144.956 68.558 139 75.239 139 76.108c0 1.676 3.019 4.892 4.592 4.892C145.184 81 172 53.566 172 51.937c0-2.152-2.024-3.937-4.464-3.937-1.316 0-6.859 4.805-15.3 13.263m25.496 6.574c-2.073 1.081-4.675 1.729-5.783 1.439-2.854-.746-6.066 2.409-5.351 5.257.31 1.238-.134 3.603-.988 5.254-4.015 7.765-2.869 16.022 2.93 21.114 4.925 4.324 9.554 4.907 17.355 2.185l6.395-2.231 5.309 5.243c2.92 2.883 5.089 5.598 4.82 6.033-1.136 1.838-7.437 2.087-10.018.396-5.525-3.62-10.751 1.343-6.348 6.029 4.467 4.755 13.009 5.532 20.16 1.834 1.651-.854 4.016-1.298 5.254-.988 2.848.715 6.003-2.497 5.257-5.351-.29-1.108.358-3.71 1.439-5.783 2.834-5.431 2.211-15.157-1.208-18.865-5.15-5.582-13.145-6.86-20.904-3.341l-4.449 2.018-5.429-5.429c-3.055-3.055-5.128-5.914-4.742-6.54.994-1.608 7.18-1.364 10.628.419 6.066 3.137 9.51-2.768 4.409-7.56-3.56-3.344-13.363-3.937-18.736-1.133m-4.69 17.553c-1.556 4.092-1.276 6.376 1.071 8.723 1.653 1.653 2.883 1.987 5.663 1.536 1.953-.317 3.924-.949 4.38-1.405.455-.455-1.625-3.25-4.622-6.211l-5.451-5.382zM200 93.989c-1.228.784-.544 1.914 3.776 6.235 4.321 4.32 5.451 5.004 6.235 3.776 1.489-2.331 1.158-7.688-.582-9.429-1.741-1.74-7.098-2.071-9.429-.582m-47.206 38.753c-12.889 12.753-15.092 15.989-12.783 18.771 2.723 3.281 5.412 1.592 18.753-11.776 13.042-13.069 14.798-15.775 12.036-18.537-2.676-2.676-5.404-.927-18.006 11.542m12 12c-12.889 12.753-15.092 15.989-12.783 18.771 2.723 3.281 5.412 1.592 18.753-11.776 13.042-13.069 14.798-15.775 12.036-18.537-2.676-2.676-5.404-.927-18.006 11.542m-127.887-2.415c-8.17 4.313-12.848 14.573-9.895 21.701 4.353 10.509 21.961 5.859 27.435-7.246 2.507-6.001 2.022-9.513-1.847-13.382-4.199-4.199-9.132-4.537-15.693-1.073m59.635 60.948c-8.858 5.017-13.363 17.381-8.402 23.059 9.707 11.111 31.344-3.762 26.926-18.508-.619-2.065-2.112-4.445-3.318-5.29-3.231-2.263-10.533-1.908-15.206.739"/><path fill="#1976D2" fill-opacity=".976" fill-rule="evenodd" d="M141.5 1.437c-1.65.747-21.562 19.979-44.25 42.738L56 85.556V96.37l17.19 17.292c9.454 9.511 16.992 17.466 16.75 17.678-.242.213-3.365.646-6.94.963l-6.5.577-3.028-4.19c-9.713-13.442-29.742-17.533-46.613-9.521C.204 131.828-8.362 165.84 10.404 184.508c2.803 2.788 7.346 6.175 10.096 7.526 4.392 2.158 6.344 2.458 16.052 2.462 10.761.004 11.252-.095 18.645-3.749 8.522-4.212 16.726-12.171 20.579-19.967l2.277-4.605 6.071-.338c3.339-.185 6.167-.112 6.283.163s.031 3.101-.192 6.281c-.401 5.745-.433 5.796-5.059 8.161-15.726 8.04-24.998 24.443-23.96 42.386.584 10.091 3.912 17.286 10.903 23.571 17.577 15.803 47.05 10.656 61.219-10.691 12.053-18.158 9.415-42.184-5.809-52.915l-4.524-3.189.644-6.552c.355-3.604.716-6.648.803-6.764s7.827 7.42 17.199 16.75C157.974 199.307 158.834 200 162.661 200c5.292 0 8.333-3.118 8.354-8.564.023-5.818 1.037-6.734 8.285-7.484 10.069-1.042 14.7-5.857 14.7-15.282 0-6.101 1.747-7.67 8.537-7.67 4.599 0 5.911-.454 8.904-3.082 3.665-3.218 5.886-8.769 4.969-12.42-.958-3.818 2.449-6.579 9.116-7.388 9.751-1.183 13.474-5.036 13.474-13.943 0-5.998 1.732-8.167 6.524-8.167 6.48 0 10.476-3.538 10.476-9.274 0-2.755-99.898-103.236-104.718-105.329-3.955-1.717-5.919-1.709-9.782.04m-37.219 47.278C78.598 74.759 64.05 90.227 64.031 91.513c-.02 1.284 5.385 7.419 14.934 16.952 8.23 8.216 15.164 14.736 15.409 14.487.244-.249.755-4.502 1.134-9.452.673-8.789.634-9.023-1.654-10-3.496-1.492-3.365-3.923.439-8.181 2.883-3.227 3.514-4.824 4.068-10.301l.657-6.482-6.784 6.732C88.345 89.127 84.586 92 83.425 92 81.056 92 79 90.211 79 88.151c0-.798 4.678-6.22 10.395-12.05 7.524-7.673 11.016-12.063 12.642-15.895 2.54-5.983 8.339-11.542 13.858-13.285 2.414-.762 7.275-4.767 14.71-12.118 8.861-8.762 11.588-10.912 13.5-10.642 1.639.232 2.502 1.093 2.733 2.729.263 1.86-1.396 4.139-7.5 10.301-6.834 6.899-7.614 8.041-6.088 8.911 1.163.662 1.75 2.217 1.75 4.632v3.634l9.365-9.184c9.347-9.166 11.17-10.249 13.435-7.984 2.677 2.677.922 5.417-11.673 18.217L133.253 68.5l-.605 7.645c-.48 6.07-.3 7.899.874 8.873 2.035 1.689 1.851 4.947-.418 7.418-1.763 1.919-4.144 14.564-2.742 14.564.307 0 2.648-2.235 5.203-4.966 5.127-5.481 7.79-6.814 9.983-4.994 3.02 2.506 1.502 5.372-7.775 14.688l-9.227 9.266-.546 6.503c-.3 3.577-.35 6.503-.112 6.503.239 0 1.607-1.238 3.04-2.75s7.405-7.395 13.269-13.073c9.516-9.214 10.884-10.204 12.732-9.215 4.202 2.249 2.532 5.107-10.693 18.302-12.485 12.457-15.296 14.276-17.957 11.615-1.125-1.125-1.401.11-2.622 11.743l-.432 4.122 18.887 18.868C160.883 190.366 163 192.17 163 189.708c0-7.977 5.949-13.698 14.25-13.704 6.413-.005 8.749-2.341 8.754-8.754.007-8.926 5.709-14.25 15.264-14.25 5.318 0 6.732-1.298 6.732-6.18 0-5.259 2.703-11.473 6.018-13.833 1.867-1.329 4.404-1.987 7.664-1.987 6.918 0 9.318-1.955 9.318-7.589 0-8.923 4.204-14.238 12.152-15.361l3.892-.55-49.795-49.75c-27.388-27.362-50.46-49.766-51.272-49.785-.813-.02-19.576 18.318-41.696 40.75m48.615 12.088c-11.625 11.391-13.03 13.129-12.731 15.75.253 2.228.92 3.03 2.732 3.286 1.927.272 4.829-2.079 14.816-12C171.746 53.897 172.525 52.85 171 50c-2.062-3.852-4.838-2.196-18.104 10.803m-36.337-4.537c-7.741 4.387-7.744 4.4-13.529 67.734-2.839 31.075-5.382 57.272-5.652 58.215s-3.383 3.139-6.919 4.88c-21.104 10.389-28.169 37.29-13.615 51.844 17.087 17.087 48.138 5.809 54.718-19.873 3.027-11.818-.668-23.311-9.562-29.74-7.595-5.489-7.933-5.923-7.427-9.522.705-5.011 11.432-120.974 11.429-123.554-.003-3.014-4.108-3.007-9.443.016M182 66.644c-.825.329-2.959 1.269-4.742 2.088-1.783.818-3.953 1.215-4.822.882-2.879-1.105-5.506 1.201-5.338 4.686.084 1.76-.578 4.873-1.472 6.918-3.576 8.178-1.158 17.904 5.28 21.233 4.203 2.174 11.863 1.961 16.613-.461l3.942-2.009 6.019 6.035c4.91 4.922 5.743 6.212 4.52 6.994-2.304 1.473-7.799 1.168-10.468-.581-3.139-2.057-6.532-.436-6.532 3.121 0 5.565 11.612 8.397 19.782 4.824 2.045-.894 5.158-1.556 6.918-1.472 3.485.168 5.791-2.459 4.686-5.338-.333-.869.17-3.215 1.118-5.214 4.081-8.6 2.009-18.482-4.59-21.894-4.252-2.199-12.049-2.15-17.056.108l-3.979 1.795-6.132-6.132-6.131-6.131 2.94-1.117c3.121-1.187 4.982-.979 10.19 1.138 2.812 1.142 3.462 1.104 4.853-.288 2.048-2.048 1.128-5.123-2.183-7.292-2.653-1.738-10.893-2.901-13.416-1.893m-9.393 17.938c-1.213 3.16-.592 8.122 1.222 9.763 1.993 1.804 7.779 2.188 10.171.675 1.225-.775.499-1.962-3.966-6.484-3.006-3.045-5.77-5.536-6.143-5.536-.372 0-.95.712-1.284 1.582m28.041 8.614-2.853 1.039 5.819 5.88c5.725 5.786 5.838 5.844 7.067 3.632 1.932-3.479 1.55-6.607-1.136-9.292-2.637-2.638-4.418-2.89-8.897-1.259m-47.291 39.983c-13.898 13.761-15.569 16.567-11.243 18.882 1.92 1.028 3.399-.153 16.097-12.85 12.358-12.359 13.858-14.214 12.913-15.979-2.445-4.568-3.972-3.714-17.767 9.947m-118.071-8.788c-24.631 8.048-34.987 37.75-18.985 54.447 5.762 6.012 10.077 7.647 20.199 7.655 7.906.006 9.669-.335 14.5-2.807 7.61-3.893 15.294-11.721 18.485-18.831 1.445-3.22 2.714-5.863 2.821-5.873 12.05-1.104 18.178-2.14 18.842-3.187.452-.712.828-3.151.837-5.42.008-2.269.308-5.59.666-7.38l.651-3.254-10.521.717-10.52.717-2.289-3.338c-3.864-5.632-8.284-9.915-12.472-12.083-5.045-2.611-16.284-3.301-22.214-1.363m-.217 9.176c-18.812 8.163-23.797 33.882-8.162 42.113C42.61 183.946 64 169.361 64 150.387c0-7.696-4.079-14.17-10.718-17.01-4.198-1.797-13.867-1.696-18.213.19m129.681 12.164c-13.239 13.288-14.851 16.074-10.613 18.342 1.95 1.044 3.37-.089 16.245-12.964 12.049-12.049 13.948-14.364 13.012-15.859-.603-.962-2.175-1.877-3.495-2.033-1.909-.225-5.002 2.33-15.149 12.514m-123.25-5.8c-4.522 1.088-6.814 2.568-10.782 6.96C21.507 157.086 24.871 170 36.739 170c13.862 0 24.984-18.431 16.338-27.077-1.608-1.608-3.596-2.923-4.418-2.923s-2.095-.178-2.827-.396c-.733-.217-2.682-.071-4.332.327m66.167 1.736c-1.49 1.489-.617 6.289 1.333 7.333 4.203 2.249 8.194-3.406 4.8-6.8-1.294-1.294-5.047-1.62-6.133-.533m-13.187 52.69c-2.914 1.357-7.008 4.548-9.755 7.604-14.125 15.71-6.995 37.095 12.341 37.017 16.242-.066 30.962-18.017 26.961-32.879-1.344-4.991-6.323-10.907-10.729-12.748-5.035-2.104-13.062-1.674-18.818 1.006m4.02 7.469c-9.762 4.607-15.313 14.9-12.135 22.504 2.657 6.359 10.287 8.419 17.52 4.729 4.217-2.152 9.743-7.951 11.182-11.735 4.383-11.527-5.464-20.738-16.567-15.498"/></svg>